<svg width="1480.4" height="1399" version="1.1" viewBox="0 0 1480.4 1399" xmlns="http://www.w3.org/2000/svg">
	<g transform="translate(-2.0768 -.28672)">
		<path d="m407.43 1399.1c-108.22-4.9363-189.09-48.17-235.44-125.88-23.164-38.834-38.002-87.163-43.845-142.81-2.1979-20.932-2.8332-34.796-2.9046-63.39-0.0581-23.28-0.0823-24.057-0.86263-27.733-3.3634-15.844-12.442-31.308-30.422-51.819-18.537-21.146-40.792-55.423-57.088-87.928-19.72-39.333-30.532-74.004-34.143-109.49-0.76224-7.4892-0.87864-27.178-0.20124-34.036 1.9979-20.227 6.4401-35.94 15.069-53.305 10.311-20.749 25.17-38.724 42.812-51.791 24.845-18.402 56.333-27.957 92.204-27.98 8.4599-5e-3 17.448 0.60763 20.926 1.4273 11.1 2.6154 30.542 10.92 43.904 18.753 32.641 19.134 52.274 42.239 57.665 67.863 1.1239 5.3414 1.5648 15.975 0.89744 21.643-1.1733 9.9641-4.0695 19.257-9.2541 29.693-15.212 30.62-46.011 50.938-90.864 59.944-3.4423 0.69112-6.3254 1.3234-6.407 1.4049-0.21549 0.21548 27.662 25.499 27.979 25.376 0.14686-0.0569 1.7706-1.9674 3.6083-4.2454 10.03-12.434 26.562-28.765 42.669-42.151 27.584-22.924 61.413-44.648 97.014-62.298 3.3954-1.6834 6.1734-3.1968 6.1734-3.3633 0-0.16642-0.56986-1.5988-1.2664-3.1829-5.574-12.678-10.709-32.618-13.292-51.622-3.0428-22.38-3.1144-49.258-0.19622-73.655 4.7626-39.816 16.43-79.571 35.615-121.35 1.4025-3.0542 2.5098-5.585 2.4605-5.6239-1.2144-0.95985-5.1544-1.1948-8.124-0.48434-3.802 0.9096-10.54 4.636-15.737 8.7037-8.6394 6.7618-19.429 18.21-30.334 32.188-4.0404 5.1786-12.002 16.039-14.87 20.285l-1.5762 2.3332-0.26526-1.0726c-0.981-3.9663-1.375-24.635-0.66109-34.681 3.4386-48.388 21.275-89.439 52.38-120.56 7.0439-7.0465 9.6739-9.1519 14.536-11.636 19.932-10.183 52.693-12.966 91.544-7.7747 38.198 5.1036 82.753 17.569 132.18 36.983 5.0514 1.9839 9.8373 3.8546 10.635 4.1571l1.451 0.55006 5.0799-3.9958c12.269-9.6506 27.34-20.485 43.18-31.042 46.867-31.235 91.969-53.969 132.3-66.684 3.6379-1.147 7.0708-2.1857 7.6287-2.3082 1.3594-0.29857 1.579-0.63072 2.4982-3.7782 1.2428-4.2553 6.3241-20.752 8.7086-28.273 22.575-71.204 41.773-120.28 54.524-139.39 3.1698-4.7492 8.5386-11.025 12.135-14.184 27.13-23.835 79.871-24.429 146.14-1.6458 14.252 4.8996 32.319 12.019 31.622 12.461-0.2568 0.16292-2.0066 0.29936-3.8885 0.3032-7.4597 0.0152-22.714 1.5295-31.301 3.1071-9.0342 1.6598-15.369 3.5247-20.744 6.1072-3.1102 1.4943-6.673 3.9005-6.8946 4.6564-0.0581 0.1981 6.0817 4.6552 13.644 9.9047 53.687 37.268 79.568 55.624 83.834 59.459 12.086 10.865 22.636 24.132 32.054 40.309 4.8602 8.3484 11.25 21.699 14.929 31.189l0.9906 2.5559 5.9977 0.23239c22.04 0.85396 51.083 5.6354 74.511 12.267 29.081 8.2314 54.697 19.536 76.922 33.947 1.9404 1.2582 3.6634 2.2876 3.8288 2.2876 0.6974 0 6.4-16.472 9.0015-26 9.3971-34.42 10.656-66.865 3.6404-93.808-0.7848-3.014-1.6348-5.9581-1.8887-6.5424l-0.4618-1.0624-4.322 1.7577c-6.0056 2.4424-19.402 6.799-26.292 8.5502-43.699 11.107-78.293 6.0785-99.862-14.515-6.2482-5.9656-10.798-12.104-14.834-20.012-4.9497-9.6984-7.5044-17.834-8.8224-28.097-1.525-11.874-1.4618-27.045 0.1659-39.803 4.3281-33.925 18.983-62.168 42.496-81.898 20.008-16.789 46.158-27.762 78.568-32.97 17.254-2.7725 40.8-4.1219 51.058-2.9259 26.457 3.0847 52.725 15.974 75.019 36.813 34.602 32.342 59.373 83.596 72.842 150.72 7.2406 36.084 9.5302 63.813 9.0952 110.15-0.203 21.626-0.3753 26.529-1.5199 43.243-4.7106 68.786-19.661 134.37-42.816 187.82-1.1277 2.6032-2.2002 5.7179-2.4184 7.0233-0.59 3.5287-0.47 15.918 0.2179 22.515 1.1626 11.15 2.516 17.628 6.4487 30.867 7.0664 23.789 15.738 58.371 22.335 89.069 22.704 105.66 30.577 196.34 22.874 263.46-2.2684 19.764-6.0917 38.443-11.004 53.757-1.0957 3.4162-2.8504 9.5337-3.8992 13.595-9.9363 38.471-28.616 79.766-53.622 118.54-30.789 47.74-71.706 91.431-118.74 126.79-104.96 78.902-243.24 122.94-412.03 131.22-34.199 1.6779-78.716 1.7516-115.61 0.1916-31.543-1.3337-67.275-4.0237-98.507-7.4161-26.683-2.8982-30.34-3.1967-44.121-3.6006-12.028-0.3527-31.275 0.5665-46.282 2.2104-22.179 2.4294-45.167 6.7916-70.053 13.293-20.135 5.2605-45.422 7.9843-76.896 8.283-8.1219 0.077-17.765 0-21.43-0.1638zm72.754-25.57c29.062-0.8732 60.856-4.7479 81.497-9.932 22.013-5.5287 45.865-8.4977 68.334-8.5061 8.409 0 11.023 0.1497 21.97 1.2853 104.19 10.807 206.7 10.142 299.48-1.9427 110.41-14.38 211.19-45.409 281.29-86.607 2.7733-1.6297 7.6356-4.3906 10.805-6.1352 16.95-9.3295 34.854-21.141 50.792-33.507 21.166-16.423 43.05-37.587 60.95-58.948 32.086-38.288 58.241-83.781 76.263-132.65 4.5155-12.244 8.9079-26.362 11.654-37.458 1.9409-7.8417 2.1284-8.7512 2.7842-13.506 0.6611-4.7932 1.1529-24.775 0.6328-25.704-0.2666-0.47629-0.9658 0.21486-3.6866 3.644-1.8468 2.3275-4.7578 6.1334-6.4689 8.4576-2.464 3.3467-3.1329 4.0585-3.2157 3.4216-0.058-0.44233 0.3882-3.6855 0.9904-7.207 0.6315-3.6921 1.095-7.6979 1.095-9.4621v-3.0594l-2.6238-5.1248c-3.5119-6.8592-9.803-16.695-13.526-21.146l-1.0491-1.2544-2.4297 4.8561c-18.846 37.668-47.396 68.313-83.2 89.305-6.444 3.7781-19.242 10.107-26.653 13.18-12.396 5.14-29.825 10.353-42.504 12.714-9.7118 1.808-14.396 2.2669-24.127 2.3639-10.144 0.101-13.972 0.5607-21.224 2.548-8.3468 2.2876-13.167 4.6292-22.728 11.04-24.722 16.577-50.114 27.592-75.442 32.725-31.897 6.4648-62.67 3.9007-92.027-7.6678-6.3072-2.4855-20.82-9.591-28.093-13.754-7.8419-4.489-21.685-14.192-32.595-22.847-22.187-17.601-50.933-43.309-71.314-63.779-10.899-10.946-17.342-16.245-30.159-24.802-7.3976-4.9389-14.326-9.2169-22.985-14.192-34.237-19.672-59.836-30.958-76.158-33.576-4.0275-0.64618-9.9852-0.71687-12.678-0.15044-9.5403 2.0066-12.681 10.196-9.127 23.799 0.48169 1.8438 1.9539 6.1888 3.2716 9.6554 12.469 32.803 19.476 63.724 22.57 99.587 0.74604 8.6493 0.62021 40.96-0.19498 50.064-3.4333 38.342-11.842 72.052-26.64 106.79-9.028 21.194-22.366 45.096-33.517 60.061-1.5139 2.0317-2.7525 3.7677-2.7525 3.8579 0 0.2548 2.1873 0.7878 10.313 2.513 29.95 6.3586 61.382 10.076 102.78 12.156 12.239 0.615 62.629 0.6176 75.996 0 45.372-2.0826 84.79-5.8272 112.85-10.72 92.364-16.106 177.07-49.066 249.77-97.187 41.628-27.556 79.262-60.547 105.23-92.254 7.1401-8.7163 9.8951-11.182 11.715-10.483 0.8712 0.3343 0.6949 3.6677-0.3076 5.8129-1.2616 2.6998-6.5751 11.346-11.953 19.449-29.403 44.307-70.597 84.962-118.3 116.75-15.089 10.056-39.154 23.842-58.528 33.529-96.937 48.47-219.75 73.07-357.65 71.636-48.347-0.5028-92.082-3.5843-136.32-9.6051-9.9111-1.3487-31.991-4.8371-33.081-5.2263-0.32761-0.117 0.206-0.963 1.6414-2.6023 5.8348-6.6637 13.642-16.838 19.93-25.972 28.519-41.43 49.94-93.841 60.669-148.44 4.0749-20.737 5.3741-34.731 5.3835-57.987 6e-3 -15.281-0.1728-19.24-1.4409-31.875-6.4018-63.787-34.969-125.05-80.055-171.69-7.5001-7.7576-20.145-19.226-23.939-21.712-0.78143-0.51203-2.0289 0.081-25.839 12.284-13.76 7.0522-25.069 12.867-25.132 12.922-0.0629 0.0549 1.1326 3.4791 2.6567 7.6092 13.998 37.934 24.014 77.047 28.948 113.04 2.4075 17.562 3.2499 28.656 3.5144 46.282 0.26675 17.777-0.49314 30.946-2.5732 44.592-0.29265 1.9201-0.70584 5.1117-0.91819 7.0927-4.9623 46.295-20.158 91.627-43.583 130.02-32.207 52.789-81.525 96.938-142.17 127.27-12.109 6.0567-25.995 12.027-36.588 15.73-2.4086 0.8421-3.7176 1.4659-3.4216 1.6306 0.26367 0.1468 3.4778 1.0194 7.1426 1.9393 16.177 4.0604 34.182 6.3971 54.026 7.0119 4.8533 0.1503 9.2294 0.2953 9.7246 0.3222 0.49522 0.027 6.0058-0.1045 12.246-0.292zm-110.75-29.181c11.994-0.633 17.241-1.4536 27.733-4.3369 33.958-9.3324 70.646-28.543 100.67-52.711 10.285-8.2798 23.386-20.674 32.016-30.289 31.662-35.278 53.045-76.18 65.215-124.75 7.7865-31.074 11.199-62.89 10.705-99.819-0.26756-20.024-1.1074-33.31-3.3356-52.765-2.1069-18.397-3.3729-24.541-9.2758-45.021-6.4733-22.459-11.904-37.835-17.185-48.655-4.4001-9.0155-8.6136-13.539-15.11-16.221-3.0229-1.2482-9.0636-1.6108-12.433-0.74623-3.2987 0.84647-6.3238 2.0659-6.5432 2.6375-0.18295 0.47678 0.58356 2.9045 4.0229 12.742 0.72721 2.08 2.6791 7.0233 4.3375 10.985 21.28 50.837 30.437 108.1 25.906 162-3.0163 35.878-12.009 70.87-26.633 103.63-9.6855 21.7-23.438 45.614-35.104 61.042-31.971 42.281-75 70.256-123.19 80.092-15.633 3.1905-32.661 4.6969-47.723 4.2219-11.644-0.3672-18.017-1.2157-28.858-3.8426-32.633-7.9069-63.241-27.287-85.827-54.342-34.07-40.812-52.862-98.168-56.942-173.79-0.21345-3.9568-0.55094-7.9209-0.75-8.8092-1.1668-5.2064-5.7627-9.2565-13.059-11.508-3.2168-0.9926-4.5844-0.9795-5.5548 0.053-2.236 2.3801-2.7956 6.327-2.7187 19.174 0.23564 39.338 7.6666 85.271 19.811 122.46 24.621 75.391 69.08 123.7 129.92 141.16 21.339 6.1248 45.57 8.6921 69.914 7.4074zm131.89-143.43c1.8095-1.9938 8.9758-11.869 13.265-18.279 15.491-23.15 26.987-47.334 34.892-73.403 6.178-20.372 9.9058-41.115 11.373-63.282 0.46351-7.0038 0.46362-27.339 1.9e-4 -34.036-2.548-36.825-9.6113-58.565-23.583-72.587-13.32-13.368-31.518-16.762-54.746-10.211-8.3762 2.3624-17.087 6.2368-28.037 12.47-12.504 7.1178-25.4 12.218-37.555 14.853-7.8506 1.7016-12.376 2.2228-21.064 2.4255-12.281 0.28663-16.876-0.25233-29.96-3.5146-52.985-13.21-107.09-39.008-156.42-74.577-18.829-13.577-35.806-27.801-45.444-38.074-14.367-15.313-22.112-22.598-28.721-27.014-3.8885-2.5979-4.7833-3.0359-11.886-5.8185-13.96-5.4694-25.175-15.16-31.061-26.841-1.625-3.2247-2.9749-6.6871-2.9749-7.6306 0-0.27199 1.6613 0.78624 3.6918 2.3516 12.577 9.6958 26.122 16.784 40.249 21.064 9.5128 2.8818 17.459 4.009 28.273 4.0107 8.6818 3e-3 13.077-0.46308 18.909-1.9984 3.8988-1.0264 4.9515-1.4898 11.16-4.9134 36.192-19.957 57.369-42.668 61.734-66.206 1.6181-8.7253 0.78943-17.882-2.3239-25.678-2.5005-6.2618-9.6137-17.694-15.782-25.365-20.26-25.195-48.469-39.272-83.602-41.719-13.606-0.94788-31.984 0.89242-39.761 3.9816-37.503 14.898-65.008 39.229-80.02 70.789-12.202 25.651-16.561 56.5-12.545 88.782 1.1969 9.621 3.4136 19.859 5.8641 27.084 3.1563 9.3054 18.544 39.986 30.582 60.978 41.24 71.91 93.64 133.19 156.84 183.42 53.92 42.854 115.75 77.468 181.44 101.57 34.207 12.552 70.971 22.571 99.947 27.236 6.8036 1.0954 6.404 1.0882 7.273 0.1307zm754.28-171.15c76.414-9.9488 143.11-76.925 165.54-166.24 10.688-42.559 10.616-87.373-0.2105-130.56-15.284-60.969-52.555-121.03-99.278-159.99-28.909-24.102-60.659-39.874-93.752-46.571-13.142-2.6594-23.396-3.6755-37.098-3.6763-8.7475 0-9.9957 0.0795-14.947 0.95904-17.698 3.1435-30.615 7.0951-42.32 12.946-27.591 13.792-50.542 36.354-69.239 68.066-3.8785 6.5781-11.87 22.506-15.02 29.936-8.6856 20.488-15.765 42.923-20.732 65.701-7.3461 33.687-8.612 70.143-3.578 103.04 8.5331 55.762 33.732 107.44 73.673 151.09 24.756 27.056 56.756 50.985 84.757 63.38 16.305 7.2179 30.847 10.99 48.466 12.572 3.7192 0.334 19.472-0.1032 23.74-0.6589zm-27.342-34.103c-21.563-2.209-42.987-11.125-66.727-27.77-16.136-11.313-26.425-19.938-38.628-32.379-39.103-39.865-63.894-90.841-70.39-144.74-1.2899-10.704-1.6068-16.543-1.593-29.354 0.026-24.089 2.8926-44.696 9.6844-69.622 15.241-55.933 42.306-96.492 80.131-120.08 11.021-6.873 27.936-12.528 45.201-15.111 5.1095-0.76452 23.904-0.65485 30.074 0.17547 28.676 3.8587 55.046 15.266 81.363 35.196 25.313 19.17 48.708 45.808 66.764 76.021 22.083 36.95 33.792 74.039 36.314 115.03 0.5164 8.3925 0.2348 25.404-0.5574 33.676-2.6821 28.005-9.7309 53.333-21.601 77.617-10.53 21.541-22.382 38.243-38.728 54.575-14.229 14.217-27.162 23.692-43.777 32.073-16.553 8.3497-32.274 13.135-48.391 14.731-4.3606 0.43164-14.748 0.40984-19.141-0.0402zm104.32-98.343c7.0685-7.3708 16.004-26.83 18.905-41.174 1.2255-6.0575 2.497-7.985 3.7144-5.6307 0.8819 1.7053 1.2788 5.2911 1.3013 11.754l0.021 6.1229 2.0156-3.9619c9.953-19.563 16.153-44.893 16.97-69.333 1.1235-33.614-5.8155-64.368-21.698-96.166-12.383-24.792-31.635-51.182-48.829-66.933-19.981-18.304-43.174-30.306-68.263-35.324-6.9123-1.3826-12.968-2.0668-22.992-2.5979-14.889-0.78872-28.594 0.66975-39.307 4.1829-17.274 5.6649-28.273 17.577-28.273 30.618 0 7.2173 2.9206 13.252 9.4128 19.449 5.5445 5.2925 11.173 8.5952 22.102 12.97 25.999 10.407 46.46 25.71 62.248 46.557 16.663 22.003 27.555 50.375 31.556 82.201 1.5539 12.361 1.6715 16.853 1.2707 48.533-0.1486 11.737-0.1582 21.34-0.022 21.34 0.7646 0 2.4959-1.2933 4.1416-3.0939 5.9207-6.4782 11.974-26.772 14.959-50.148 1.1102-8.6954 1.6995-10.518 3.2137-9.9366 1.6047 0.61578 2.6827 6.3937 3.9925 21.399 1.8192 20.843 1.6669 52.061-0.3672 75.228-0.3021 3.4406-0.4894 6.3156-0.4162 6.3888 0.2538 0.25387 2.3529-1.5078 3.6583-3.0702 4.9476-5.9219 11.127-21.454 18.926-47.572 4.348-14.561 5.3383-17.1 6.4104-16.438 1.0561 0.65271 1.1611 3.8994 1.1611 35.891v32.46l0.9905-0.70749c0.5448-0.38912 1.9838-1.7433 3.1978-3.0092zm-202.21-42.925c10.727-3.2284 13.557-22.885 6.1517-42.729-5.976-16.015-17.14-27.733-26.422-27.733-10.546 0-15.902 15.216-11.854 33.676 4.9013 22.354 20.548 40.271 32.124 36.787zm37.409-8.3939c7.8243-7.3187 12.923-28.321 14.315-58.971l0.2439-5.3665 15.487 16.732 0.29-1.7391c0.5681-3.4069 0.4068-16.937-0.2568-21.543-0.6848-4.7535-2.7981-13.347-4.5128-18.351-0.6067-1.7705-1.103-3.3667-1.103-3.5472 0-0.46745 2.1138 0.84121 5.4025 3.3446 11.515 8.7657 20.211 22.525 25.417 40.219 3.2042 10.889 5.1764 25.403 5.1919 38.208l0.01 4.4121h21.725l-0.2388-8.374c-1.38-48.402-15.612-87.184-42.987-117.14-14.723-16.109-35.671-30.6-53.189-36.793-1.338-0.47305-1.3743-0.46581-0.9004 0.17958 0.2715 0.36986 2.7044 3.5994 5.4064 7.1768 8.6543 11.458 16.809 24.124 20.364 31.627 1.3169 2.78 1.6689 3.9228 1.6988 5.5154l0.038 2.0089-1.335-0.0775c-1.5167-0.088-13.557-4.0767-21.896-7.2535-3.0705-1.1697-5.6524-2.063-5.7377-1.9851-0.1915 0.17494 3.2579 5.1988 11.466 16.7 12.945 18.138 16.663 24.706 15.702 27.735-0.3893 1.2265-2.4599 1.8803-5.8653 1.852-2.7626-0.023-3.2805-0.15265-6.4981-1.6276-6.4363-2.9502-11.299-4.1879-16.454-4.1879-2.8698 0-8.1001 0.86933-8.1001 1.3463 0 0.11442 1.1051 1.4386 2.4558 2.9425 11.371 12.661 18.368 27.006 21.65 44.384 2.2831 12.091 2.4583 28.49 0.4333 40.56-0.3407 2.0304-0.4837 3.6917-0.3179 3.6917s1.1104-0.75671 2.0992-1.6815zm-186.31 174.33c-41.547-51.867-71.403-107.29-86.902-161.31-5.1786-18.05-9.1039-38.328-10.806-55.826-0.73278-7.5314-1.3994-32.832-1.1246-42.68 1.4596-52.306 24.476-104.98 66.771-152.81 17.429-19.71 39.59-39.65 59.765-53.774l3.8156-2.6713-5.0084 4e-3c-24.198 0.0178-50.573 7.394-74.341 20.79-5.6414 3.1795-15.579 9.8492-20.17 13.537-7.4057 5.949-19.157 18.657-27.031 29.231-30.175 40.524-45.709 94.68-45.718 159.38-5e-3 35.623 4.8201 74.604 13.486 108.95 1.2495 4.9523 2.2249 9.0566 2.1676 9.1205-0.22158 0.24725-7.5476-13.034-10.591-19.201-15.064-30.52-23.366-62.484-25.588-98.511-0.46603-7.5567-0.46951-25.001-6e-3 -32.956 2.4994-42.947 13.652-87.243 33.053-131.28 3.9418-8.9472 12.406-25.871 16.642-33.276 1.7998-3.1459 3.221-5.7714 3.158-5.8343-0.23552-0.2355-7.4528 5.9828-11.721 10.099-20.14 19.421-43.439 52.781-64.908 92.939-5.0125 9.3757-7.9945 14.429-14.07 23.842-18.095 28.036-43.097 59.407-72.706 91.227-6.7229 7.2247-31.456 31.964-38.201 38.209-2.8724 2.6599-5.2225 4.9576-5.2225 5.1059 0 0.38595 31.169 25.027 41.431 32.754 4.5274 3.409 8.717 5.7987 14.935 8.5191 9.4961 4.1544 19.643 7.0077 27.193 7.6468 7.963 0.67399 13.881 2.283 27.849 7.572 5.2849 2.0012 11.223 4.2002 13.195 4.8868 6.4297 2.2381 11.732 5.067 25.047 13.362 28.394 17.689 96.574 65.354 160.46 112.17 5.5466 4.0652 10.134 7.3501 10.194 7.2999 0.0603-0.05-2.2094-2.9864-5.0438-6.5248zm148.28-2.6481c9.8766-1.0482 11.668-4.4959 5.6504-10.875-4.2283-4.4823-10.091-8.78-20.057-14.702-23.377-13.892-41.372-31.406-57.543-56.005-24.671-37.53-41.528-89.56-48.31-149.11-1.6927-14.864-2.7391-30.111-2.7391-39.911 0-3.2148-0.1365-5.6425-0.3065-5.4527-0.1686 0.1882-0.7475 1.4767-1.2866 2.8634-1.34 3.4474-4.5541 9.4757-6.8053 12.764-2.4076 3.5168-7.1735 8.304-9.2737 9.3151-1.8414 0.88654-3.3051 1.016-3.8607 0.3415-0.20394-0.2476-0.72359-2.5438-1.1548-5.1027-0.99409-5.8996-1.9156-9.5035-2.9714-11.621-0.98945-1.9841-1.6384-2.4631-2.9058-2.145-1.8395 0.46168-4.1163 5.9476-5.128 12.356-2.3334 14.78-4.8182 22.027-8.4363 24.603-4.0943 2.9154-9.5851-0.468-15.228-9.3832l-2.1488-3.395 0.24285 3.2415c0.13355 1.7828 0.63807 7.2124 1.1212 12.066 11.492 115.46 53.92 192.01 121.98 220.08 13.659 5.6334 26.228 8.4463 43.317 9.6937 2.9714 0.2169 5.9698 0.4455 6.6631 0.5081 2.7392 0.2471 6.0935 0.2005 9.1844-0.1276zm-886.91-141.91c24.776-29.49 58.48-53.255 96.205-67.836 11.041-4.2674 26.348-8.6977 36.408-10.538 2.826-0.51694 5.1557-0.96333 5.1773-0.99196 0.0657-0.0873-18.742-27.546-19.136-27.939-0.24932-0.24814-1.1777-0.13012-2.8814 0.36624-36.635 10.674-71.448 30.561-103 58.839-10.574 9.4761-23.818 23.407-31.453 33.084l-2.2194 2.8128 8.9126 7.6953c4.9019 4.2324 9.0258 7.6669 9.1643 7.6321 0.13843-0.0348 1.4091-1.4409 2.8238-3.1247zm326.12-39.429c28.523-0.76735 60.589-13.206 89.336-34.655 15.687-11.705 32.211-27.877 46.153-45.17 12.496-15.5 24.969-34.186 36.015-53.956 7.8519-14.052 21.464-42.209 24.305-50.276 1.2507-3.5514 1.3471-6.1558 0.27793-7.515-0.63477-0.80698-1.0255-0.94896-2.6112-0.94872-2.2742 0-4.9548 1.1962-9.4883 4.2328-12.332 8.2601-27.379 14.903-40.257 17.773-11.878 2.6468-24.339 2.3591-33.709-0.77821-11.737-3.9303-21.822-12.342-29.312-24.45-4.2969-6.9464-5.8964-11.066-7.5592-19.469-5.0777-25.66 1.9022-48.728 19.227-63.545 8.2616-7.0658 19.59-13.066 31.651-16.765 3.2938-1.01 3.6533-1.1985 3.0614-1.6048-3.3269-2.284-23.288-12.249-33.984-16.966-52.738-23.257-114.27-40.408-176.85-49.295-22.931-3.2564-50.838-5.8997-69.041-6.5393l-6.0542-0.21272-2.819 3.831c-18.929 25.724-36.064 60.09-45.627 91.51-15.766 51.799-16.182 101.99-1.2425 150.17 3.4702 11.191 9.996 27.429 13.743 34.198 9.5308 17.214 23.903 33.912 40.988 47.62 33.124 26.577 76.329 41.358 125.52 42.943 7.8114 0.25173 15.303 0.2167 28.273-0.13223zm136.32-212.62c11.962-3.9198 18.713-16.867 15.056-28.878-1.0913-3.5848-3.0313-6.7644-5.8425-9.5757-2.8877-2.8876-5.9911-4.7516-9.9341-5.9667-3.9895-1.2293-9.5324-1.1443-13.503 0.20725-7.0962 2.4154-12.22 7.4219-14.866 14.526-1.2105 3.2497-1.5083 9.1884-0.64558 12.873 1.0176 4.346 2.8469 7.5338 6.311 10.998 3.3522 3.3523 6.5742 5.2496 10.642 6.2671 3.1369 0.78459 9.7192 0.55214 12.782-0.45135zm101.97-44.367c6.2479-7.8299 17.21-17.987 26.781-24.813 11.833-8.4396 26.261-15.663 39.27-19.66 2.3771-0.7304 4.5652-1.4074 4.8623-1.5044 0.29714-0.097-0.89766-0.73356-2.6551-1.4145-7.3817-2.8601-18.107-9.001-25.56-14.634-12.361-9.344-23.653-21.382-32.53-34.68-16.105-24.127-26.14-53.78-29.985-88.602-1.2383-11.216-1.6005-18.327-1.6281-31.965-0.0146-7.2799-0.15092-13.236-0.30265-13.236-0.52621-1.4e-4 -9.4805 3.326-15.752 5.851-32.22 12.973-65.068 31.268-90.753 50.546-8.6465 6.4895-20.54 16.256-20.54 16.867 0 0.0831 2.3096 0.91763 5.1324 1.8544 2.8228 0.93681 8.2929 2.9644 12.156 4.5057 40.94 16.336 75.698 41.73 97.796 71.451 16.359 22.002 26.289 46.876 29.481 73.852 0.30476 2.5752 0.65584 5.789 0.78021 7.1417 0.12434 1.3527 0.27129 2.4062 0.32653 2.3411 0.0552-0.0651 1.4584-1.8202 3.1181-3.9002zm335.29-65.72c12.186-4.174 27.412-6.9071 47.535-8.5326 3.4944-0.28225 13.06-0.4624 25.572-0.48155 19.538-0.0299 20.033-0.048 21.902-0.79969 4.2825-1.7225 5.9893-4.0599 5.9916-8.2056 0-3.1481-0.9092-5.9798-3.9394-12.246-7.4268-15.357-21.119-29.072-40.214-40.279-4.1962-2.4629-14.055-7.2998-18.44-9.0468-2.3592-0.93994-40.554-12.513-63.708-19.304-0.9653-0.28309-1.4625 0.37413-27.844 36.807-14.774 20.402-26.932 37.286-27.02 37.52-0.087 0.23415 0.4488 0.68829 1.1913 1.0092 26.599 11.498 38.926 16.218 53.935 20.654 5.6364 1.666 15.043 3.8531 18.369 4.2707 0.5942 0.0746 1.2807 0.15997 1.5255 0.18965 0.2448 0.0297 2.56-0.67045 5.1449-1.5559zm-153.32-16.053c20.463-3.097 39.485-10.903 54.346-22.302 25.114-19.263 41.96-49.252 50.142-89.259 3.5673-17.443 5.4811-40.289 4.5708-54.564-2.5861-40.553-21.659-76.793-55.98-106.36-23.036-19.847-52.819-36.604-86.339-48.578-6.5382-2.3355-16.825-5.5245-18.334-5.6837-0.74215-0.0783-1.2238 0.47328-3.3798 3.8706-24.791 39.065-43.78 92.589-53.924 151.99-4.2352 24.803-7.0876 51.8-7.797 73.796l-0.23855 7.3961 4.7648-2.1742c11.434-5.2172 22.098-7.5238 34.787-7.5238 6.5331 0 10.912 0.42078 16.949 1.6285 22.445 4.4904 38.43 20.175 43.674 42.853 1.5877 6.8657 2.024 11.136 2.0243 19.809 0 8.6646-0.31867 12.051-1.8148 19.269-0.92703 4.4722-1.132 9.6464-0.47578 12.01 0.21146 0.76155 0.9052 1.9529 1.5416 2.6473 2.2169 2.4191 5.5803 2.6746 15.482 1.176zm423.62-26.67 14.407-4.8301 0.9861-3.9619c3.2195-12.935 7.6146-33.481 10.324-48.263 14.766-80.546 15.668-151.43 2.7345-214.82-11.897-58.306-37.094-109.76-69.68-142.29-6.4988-6.4874-9.8243-9.1528-16.126-12.925-10.167-6.086-19.443-10.366-30.167-13.919-7.4187-2.4578-12.761-3.7594-20.345-4.9573-6.6672-1.053-23.187-1.1326-29.538-0.14237-25.738 4.0124-48.697 16.219-69.55 36.976-12.002 11.947-18.038 20.113-25.164 34.047-12.386 24.217-16.199 46.11-11.316 64.961 1.8062 6.9728 5.0852 13.863 9.6227 20.219 2.8816 4.0368 11.077 12.239 15.369 15.38 7.0758 5.1802 15.564 9.7535 22.197 11.959 7.8188 2.6 28.183 2.4143 41.733-0.38042 34.568-7.1299 60.992-31.765 75.448-70.34 1.9962-5.3266 4.8275-14.83 5.237-17.579 0.1402-0.94095 0.3986-1.7108 0.5743-1.7108 0.1755 0 0.3198 0.0405 0.3205 0.09 0 0.0495 0.4907 1.2912 1.0889 2.7593 2.4195 5.9376 3.5921 12.555 3.5921 20.271 0 13.552-4.6036 28.773-11.719 38.749-3.1866 4.4675-5.1246 8.2917-6.52 12.865l-0.9889 3.2415 0.1005 20.17c0.1045 20.967-0.1983 30.554-1.4256 45.14-3.2863 39.056-12.028 73.887-25.372 101.09-2.8056 5.7194-6.76 12.579-9.3341 16.192-3.0884 4.335-5.2502 9.5202-5.248 12.588 0 3.5876 1.2139 4.5525 9.766 7.78 7.5268 2.8406 11.894 5.4974 10.808 6.5752-0.7431 0.73767-7.5109 0.45587-14.993-0.62424-3.7638-0.54333-7.9867-0.97276-9.3843-0.95428-4.7576 0.0629-9.048 2.2819-11.418 5.9055-2.0028 3.0618-2.1639 2.7889 2.9203 4.9455 20.48 8.6872 54.294 26.553 82.292 43.481 8.7579 5.295 11.052 6.7731 14.64 9.4337 8.0497 5.9685 14.449 8.0263 24.32 7.82l5.4026-0.11292zm-495.76-3.06c4.9904-1.4668 9.2732-4.6153 12.17-8.947 2.39-3.5734 3.3282-6.3965 3.5678-10.736 0.24727-4.4777-0.27675-7.1917-2.1395-11.081-1.7866-3.73-5.6747-7.8217-9.1751-9.6555-2.9367-1.5386-7.1666-2.5903-10.418-2.5903-9.5386 0-17.978 6.1831-20.894 15.307-1.1383 3.5621-1.2898 8.5021-0.36881 12.021 2.158 8.2449 9.2161 14.722 17.708 16.251 2.3859 0.42959 7.1074 0.14787 9.5489-0.56975zm346.7-83.723c5.1556-5.9653 9.6109-12.798 13.73-21.056 2.0829-4.1759 6.039-13.692 6.2735-15.09 0.1384-0.82459-3.9041-3.4166-13.621-8.7334-33.503-18.333-72.525-29.323-113.04-31.839-6.6133-0.41062-23.339-0.35749-23.771 0.0755-0.1311 0.1315-0.023 2.1575 0.2408 4.5021 0.3098 2.7559 0.4738 8.5924 0.464 16.509-0.018 14.847-0.3968 19.219-3.3004 38.143l-0.2157 1.406 2.3059-0.22569c11.9-1.1647 37.381-1.5138 48.588-0.66551 22.722 1.7199 41.511 5.2832 58.338 11.064 6.8937 2.3683 13.038 4.945 17.478 7.3298 1.7828 0.95752 3.3494 1.7623 3.4813 1.7885 0.1318 0.0262 1.5059-1.4175 3.0534-3.2081z" stroke-width=".27013"/>
	</g>
</svg>
